# xmcd CD database file
#
# Track frame offsets:
#	150
#	16564
#	28942
#	41874
#	52837
#	64952
#	80860
#	95583
#	111458
#	122742
#	139210
#	154189
#	164941
#	178608
#	189732
#	203544
#	216380
#	229343
#	242418
#	255381
#
# Disc length: 3538 seconds
#
# Revision: 1
# Processed by: cddbd v1.5.1PL2 Copyright (c) Steve Scherf et al.
# Submitted via: CDex 1.50Beta7
#
DISCID=270dd014
DTITLE=Billie Jo Spears - Love Songs
DYEAR=2002
DGENRE=Country
TTITLE0=Blanket On The Ground - Billy
TTITLE1=What I've Got In Mind
TTITLE2=Today I Started Loving You Aga
TTITLE3=Don't Ever Let Go Of Me
TTITLE4=All I Want Is You
TTITLE5=I've Never Loved Anyone More
TTITLE6=Say It Again
TTITLE7=I Fall To Pieces
TTITLE8=True Love
TTITLE9=Love Ain't The Question (Love
TTITLE10=Every Time I Sing A Love Song
TTITLE11=I've Got To Go
TTITLE12=Since I Fell For You
TTITLE13=Come On Home
TTITLE14=What A Love I Have In You
TTITLE15=There's More To A Tear Than Me
TTITLE16=What The World Needs Now Is Lo
TTITLE17=Love Ain't Gonna Wait For Us
TTITLE18=I Love You Because
TTITLE19=Put A Little Love In Your Hear
EXTD=YEAR: 2002
EXTT0=
EXTT1=
EXTT2=
EXTT3=
EXTT4=
EXTT5=
EXTT6=
EXTT7=
EXTT8=
EXTT9=
EXTT10=
EXTT11=
EXTT12=
EXTT13=
EXTT14=
EXTT15=
EXTT16=
EXTT17=
EXTT18=
EXTT19=
PLAYORDER=
